<?xml version="1.0" encoding="UTF-8" standalone="no"?>
<svg
   xmlns:dc="http://purl.org/dc/elements/1.1/"
   xmlns:cc="http://creativecommons.org/ns#"
   xmlns:rdf="http://www.w3.org/1999/02/22-rdf-syntax-ns#"
   xmlns:svg="http://www.w3.org/2000/svg"
   xmlns="http://www.w3.org/2000/svg"
   xmlns:sodipodi="http://sodipodi.sourceforge.net/DTD/sodipodi-0.dtd"
   xmlns:inkscape="http://www.inkscape.org/namespaces/inkscape"
   version="1.1"
   id="svg10"
   width="363.63635"
   height="363.63635"
   viewBox="0 0 363.63635 363.63635"
   sodipodi:docname="brand_svg.svg"
   inkscape:version="1.0.1 (3bc2e813f5, 2020-09-07)">
  <metadata
     id="metadata16">
    <rdf:RDF>
      <cc:Work
         rdf:about="">
        <dc:format>image/svg+xml</dc:format>
        <dc:type
           rdf:resource="http://purl.org/dc/dcmitype/StillImage" />
        <dc:title></dc:title>
      </cc:Work>
    </rdf:RDF>
  </metadata>
  <defs
     id="defs14" />
  <sodipodi:namedview
     pagecolor="#ffffff"
     bordercolor="#666666"
     borderopacity="1"
     objecttolerance="10"
     gridtolerance="10"
     guidetolerance="10"
     inkscape:pageopacity="0"
     inkscape:pageshadow="2"
     inkscape:window-width="1600"
     inkscape:window-height="822"
     id="namedview12"
     showgrid="false"
     inkscape:zoom="0.86900003"
     inkscape:cx="420.12761"
     inkscape:cy="169.12529"
     inkscape:window-x="-8"
     inkscape:window-y="-8"
     inkscape:window-maximized="1"
     inkscape:current-layer="g18" />
  <g
     inkscape:groupmode="layer"
     inkscape:label="Image"
     id="g18">
    <path
       style="fill:#ffffff;fill-opacity:1;fill-rule:evenodd;stroke-width:0.848056"
       id="path118"
       sodipodi:type="arc"
       sodipodi:cx="182.64467"
       sodipodi:cy="183.66158"
       sodipodi:rx="178.5894"
       sodipodi:ry="177.12556"
       sodipodi:start="0"
       sodipodi:end="6.2598328"
       sodipodi:open="true"
       sodipodi:arc-type="arc"
       d="M 361.23407,183.66158 A 178.5894,177.12556 0 0 1 183.68729,360.78412 178.5894,177.12556 0 0 1 4.0674412,185.72969 178.5894,177.12556 0 0 1 179.51695,6.563177 178.5894,177.12556 0 0 1 361.18538,179.52563" />
    <path
       style="fill:#e39e6d;stroke-width:0.616768"
       d="m 69.691509,255.61818 c -1.592378,-0.4511 -3.396422,-1.19857 -4.008989,-1.66102 -8.111426,-6.12374 -10.677405,-13.52736 -7.563132,-21.82191 1.758639,-4.68395 5.517868,-8.46653 10.881541,-10.94913 3.657936,-1.6931 4.569426,-1.86949 8.286031,-1.60358 3.167947,0.22667 4.253822,0.0959 4.49847,-0.5416 0.17737,-0.46222 0.678138,-0.84144 1.11281,-0.84269 0.434679,-8.5e-4 1.718186,-1.79674 2.852257,-3.98997 2.005898,-3.87934 3.014508,-5.54196 8.428623,-13.89402 14.07369,-21.71076 15.43373,-23.99093 14.7047,-24.6533 -0.68477,-0.62216 -36.171952,-28.34653 -42.094129,-32.88606 l -4.563516,-3.49805 -2.444818,2.20874 c -3.673803,3.31906 -6.837918,4.52601 -11.865335,4.52601 -6.792036,0 -11.606764,-2.5963 -15.393019,-8.30052 -2.968907,-4.47286 -3.795414,-9.23756 -2.763347,-15.93033 0.62701,-4.06604 1.114921,-5.29801 3.085574,-7.79108 2.916787,-3.69003 5.233998,-5.36181 9.026909,-6.51265 9.329938,-2.83084 18.663377,1.51567 22.83873,10.63585 1.314274,2.87074 1.620745,4.44404 1.594277,8.18447 -0.01798,2.54679 -0.364902,5.45975 -0.770849,6.47323 -0.66318,1.65569 -0.593147,1.9584 0.690105,2.98281 0.785504,0.62707 2.234262,1.85035 3.219467,2.71842 2.151085,1.89533 7.628618,6.33691 24.421361,19.80255 6.95405,5.57627 14.44778,11.70869 16.65273,13.62758 3.44851,3.00115 7.63996,5.57606 20.66174,12.69305 2.36548,1.29284 14.30712,8.01049 18.81141,10.58216 1.18726,0.67786 8.54222,4.79209 16.34434,9.14273 7.80212,4.35063 15.13398,8.4422 16.29306,9.0924 2.0518,1.15098 2.17358,1.15245 4.61523,0.0556 3.27593,-1.47167 10.77817,-1.4541 14.23784,0.0333 1.78862,0.76901 2.52377,0.85748 2.70124,0.32509 0.26773,-0.80319 9.92,-12.12689 17.00895,-19.95427 2.4746,-2.73239 5.85418,-6.51313 7.51017,-8.40164 13.9583,-15.91823 22.07217,-24.63057 22.94516,-24.63751 0.56972,-0.004 13.43736,12.55074 28.59475,27.90057 l 27.55892,27.90878 4.3244,-0.19978 c 6.49402,-0.30001 10.41322,1.06053 14.4296,5.00923 5.67934,5.58361 7.27067,12.4821 4.66154,20.20812 -5.53753,16.39755 -29.58798,16.3365 -35.38351,-0.0898 -1.12772,-3.19628 -1.12084,-8.38851 0.0174,-13.15541 0.73156,-3.06376 1.37446,-4.13493 3.92859,-6.54561 l 3.05391,-2.88238 -13.30844,-13.80774 c -19.3081,-20.03249 -26.49172,-27.51096 -30.75335,-32.01554 -2.07918,-2.19769 -4.47245,-4.63556 -5.3184,-5.41748 l -1.53803,-1.42164 -6.70858,7.29407 c -3.68974,4.01174 -8.82433,9.6473 -11.41021,12.52347 -15.74511,17.51265 -26.07165,28.73328 -26.85684,29.18219 -0.72529,0.41466 -0.48287,0.92253 1.23806,2.59389 2.76284,2.68324 5.27269,7.84757 5.74274,11.81641 0.44951,3.79545 -0.64137,8.80508 -2.68721,12.34045 -4.93532,8.5286 -16.14483,11.94882 -25.16041,7.67685 -11.23687,-5.32449 -14.7997,-19.14703 -7.57658,-29.39453 1.20464,-1.70907 1.73406,-2.98901 1.37535,-3.32511 -0.32076,-0.30055 -3.29082,-2.10074 -6.6001,-4.00039 -3.30929,-1.89968 -8.58265,-4.93739 -11.71859,-6.75048 -3.13594,-1.81309 -6.2568,-3.61379 -6.93525,-4.00153 -0.67844,-0.38775 -7.89462,-4.5087 -16.03594,-9.1577 -16.70191,-9.5374 -19.93009,-11.39784 -23.43717,-13.50712 -1.3569,-0.81608 -2.65036,-1.48834 -2.87438,-1.49392 -0.22399,-0.007 -1.59001,1.86328 -3.03557,4.15303 -1.44556,2.28974 -5.45254,8.46514 -8.9044,13.72308 -9.555855,14.55568 -14.498316,23.02725 -14.468964,24.80034 0.0068,0.43754 1.149642,1.59993 2.538655,2.58309 3.305459,2.33965 5.719653,6.238 6.687522,10.79883 1.732332,8.1631 -2.434259,16.30969 -10.427203,20.38739 -3.265498,1.66593 -10.904887,2.2027 -14.967879,1.05166 z"
       id="path100" />
    <path
       style="fill:#62b4d3;stroke-width:0.616768"
       d="m 69.691509,255.61818 c -1.592378,-0.4511 -3.396422,-1.19857 -4.008989,-1.66102 -8.111426,-6.12374 -10.677405,-13.52736 -7.563132,-21.82191 1.758639,-4.68395 5.517868,-8.46653 10.881541,-10.94913 3.657936,-1.6931 4.569426,-1.86949 8.286031,-1.60358 3.167947,0.22667 4.253822,0.0959 4.49847,-0.5416 0.17737,-0.46222 0.678138,-0.84144 1.11281,-0.84269 0.434679,-8.5e-4 1.718186,-1.79674 2.852257,-3.98997 2.005898,-3.87934 3.014508,-5.54196 8.428623,-13.89402 14.07369,-21.71076 15.43373,-23.99093 14.7047,-24.6533 -0.68477,-0.62216 -36.171952,-28.34653 -42.094129,-32.88606 l -4.563516,-3.49805 -2.444818,2.20874 c -3.673803,3.31906 -6.837918,4.52601 -11.865335,4.52601 -6.792036,0 -11.606764,-2.5963 -15.393019,-8.30052 -2.968907,-4.47286 -3.795414,-9.23756 -2.763347,-15.93033 0.62701,-4.06604 1.114921,-5.29801 3.085574,-7.79108 2.916787,-3.69003 5.233998,-5.36181 9.026909,-6.51265 9.329938,-2.83084 18.663377,1.51567 22.83873,10.63585 1.314274,2.87074 1.620745,4.44404 1.594277,8.18447 -0.01798,2.54679 -0.364902,5.45975 -0.770849,6.47323 -0.66318,1.65569 -0.593147,1.9584 0.690105,2.98281 0.785504,0.62707 2.234262,1.85035 3.219467,2.71842 2.151085,1.89533 7.628618,6.33691 24.421361,19.80255 6.95405,5.57627 14.44778,11.70869 16.65273,13.62758 3.44851,3.00115 7.63996,5.57606 20.66174,12.69305 2.36548,1.29284 14.30712,8.01049 18.81141,10.58216 1.18726,0.67786 8.54222,4.79209 16.34434,9.14273 7.80212,4.35063 15.13398,8.4422 16.29306,9.0924 2.0518,1.15098 2.17358,1.15245 4.61523,0.0556 3.27593,-1.47167 10.77817,-1.4541 14.23784,0.0333 1.78862,0.76901 2.52377,0.85748 2.70124,0.32509 0.26773,-0.80319 9.92,-12.12689 17.00895,-19.95427 2.4746,-2.73239 5.85418,-6.51313 7.51017,-8.40164 13.9583,-15.91823 22.07217,-24.63057 22.94516,-24.63751 0.56972,-0.004 13.43736,12.55074 28.59475,27.90057 l 27.55892,27.90878 4.3244,-0.19978 c 6.49402,-0.30001 10.41322,1.06053 14.4296,5.00923 5.67934,5.58361 7.27067,12.4821 4.66154,20.20812 -5.53753,16.39755 -29.58798,16.3365 -35.38351,-0.0898 -1.12772,-3.19628 -1.12084,-8.38851 0.0174,-13.15541 0.73156,-3.06376 1.37446,-4.13493 3.92859,-6.54561 l 3.05391,-2.88238 -13.30844,-13.80774 c -19.3081,-20.03249 -26.49172,-27.51096 -30.75335,-32.01554 -2.07918,-2.19769 -4.47245,-4.63556 -5.3184,-5.41748 l -1.53803,-1.42164 -6.70858,7.29407 c -3.68974,4.01174 -8.82433,9.6473 -11.41021,12.52347 -15.74511,17.51265 -26.07165,28.73328 -26.85684,29.18219 -0.72529,0.41466 -0.48287,0.92253 1.23806,2.59389 2.76284,2.68324 5.27269,7.84757 5.74274,11.81641 0.44951,3.79545 -0.64137,8.80508 -2.68721,12.34045 -4.93532,8.5286 -16.14483,11.94882 -25.16041,7.67685 -11.23687,-5.32449 -14.7997,-19.14703 -7.57658,-29.39453 1.20464,-1.70907 1.73406,-2.98901 1.37535,-3.32511 -0.32076,-0.30055 -3.29082,-2.10074 -6.6001,-4.00039 -3.30929,-1.89968 -8.58265,-4.93739 -11.71859,-6.75048 -3.13594,-1.81309 -6.2568,-3.61379 -6.93525,-4.00153 -0.67844,-0.38775 -7.89462,-4.5087 -16.03594,-9.1577 -16.70191,-9.5374 -19.93009,-11.39784 -23.43717,-13.50712 -1.3569,-0.81608 -2.65036,-1.48834 -2.87438,-1.49392 -0.22399,-0.007 -1.59001,1.86328 -3.03557,4.15303 -1.44556,2.28974 -5.45254,8.46514 -8.9044,13.72308 -9.555855,14.55568 -14.498316,23.02725 -14.468964,24.80034 0.0068,0.43754 1.149642,1.59993 2.538655,2.58309 3.305459,2.33965 5.719653,6.238 6.687522,10.79883 1.732332,8.1631 -2.434259,16.30969 -10.427203,20.38739 -3.265498,1.66593 -10.904887,2.2027 -14.967879,1.05166 z m 13.640003,-4.39592 c 3.440001,-1.7432 7.093224,-5.70993 8.117836,-8.8145 0.387409,-1.17388 0.587609,-3.74868 0.444889,-5.7218 -0.356988,-4.93525 -2.816342,-8.82052 -7.284638,-11.50823 -3.129419,-1.88236 -3.790944,-2.03816 -8.664077,-2.0405 -4.762368,-0.002 -5.550034,0.17124 -8.091309,1.78287 -10.701889,6.78694 -10.15954,20.7098 1.031922,26.49057 3.701086,1.91175 10.475279,1.82339 14.445377,-0.18841 z m 236.794308,-2.01524 c 3.18957,-1.50908 7.13212,-5.77822 7.99456,-8.65683 3.10199,-10.35353 -3.71956,-20.49936 -13.78275,-20.49936 -2.8259,0 -3.25268,0.17682 -3.9103,1.62012 -0.65785,1.44384 -0.99929,1.5851 -3.13799,1.29826 -2.9303,-0.39306 -4.52093,0.59419 -6.1721,3.83076 -0.65946,1.29263 -1.62715,2.51454 -2.15044,2.71534 -1.52779,0.58625 -1.30193,8.54182 0.33873,11.93095 1.4379,2.97032 4.47926,6.09408 7.50497,7.70836 2.74748,1.46581 10.26539,1.4954 13.31532,0.0524 z"
       id="path98" />
    <path
       style="fill:#a0a0a0;stroke-width:0.616768"
       d="m 69.691509,255.61818 c -1.592378,-0.4511 -3.396422,-1.19857 -4.008989,-1.66102 -8.111426,-6.12374 -10.677405,-13.52736 -7.563132,-21.82191 1.758639,-4.68395 5.517868,-8.46653 10.881541,-10.94913 3.657936,-1.6931 4.569426,-1.86949 8.286031,-1.60358 3.167947,0.22667 4.253822,0.0959 4.49847,-0.5416 0.17737,-0.46222 0.678138,-0.84144 1.11281,-0.84269 0.434679,-8.5e-4 1.718186,-1.79674 2.852257,-3.98997 2.005898,-3.87934 3.014508,-5.54196 8.428623,-13.89402 14.07369,-21.71076 15.43373,-23.99093 14.7047,-24.6533 -0.68477,-0.62216 -36.171952,-28.34653 -42.094129,-32.88606 l -4.563516,-3.49805 -2.444818,2.20874 c -3.673803,3.31906 -6.837918,4.52601 -11.865335,4.52601 -6.792036,0 -11.606764,-2.5963 -15.393019,-8.30052 -2.968907,-4.47286 -3.795414,-9.23756 -2.763347,-15.93033 0.62701,-4.06604 1.114921,-5.29801 3.085574,-7.79108 2.916787,-3.69003 5.233998,-5.36181 9.026909,-6.51265 9.329938,-2.83084 18.663377,1.51567 22.83873,10.63585 1.314274,2.87074 1.620745,4.44404 1.594277,8.18447 -0.01798,2.54679 -0.364902,5.45975 -0.770849,6.47323 -0.66318,1.65569 -0.593147,1.9584 0.690105,2.98281 0.785504,0.62707 2.234262,1.85035 3.219467,2.71842 2.151085,1.89533 7.628618,6.33691 24.421361,19.80255 6.95405,5.57627 14.44778,11.70869 16.65273,13.62758 3.44851,3.00115 7.63996,5.57606 20.66174,12.69305 2.36548,1.29284 14.30712,8.01049 18.81141,10.58216 1.18726,0.67786 8.54222,4.79209 16.34434,9.14273 7.80212,4.35063 15.13398,8.4422 16.29306,9.0924 2.0518,1.15098 2.17358,1.15245 4.61523,0.0556 3.27593,-1.47167 10.77817,-1.4541 14.23784,0.0333 1.78862,0.76901 2.52377,0.85748 2.70124,0.32509 0.26773,-0.80319 9.92,-12.12689 17.00895,-19.95427 2.4746,-2.73239 5.85418,-6.51313 7.51017,-8.40164 13.9583,-15.91823 22.07217,-24.63057 22.94516,-24.63751 0.56972,-0.004 13.43736,12.55074 28.59475,27.90057 l 27.55892,27.90878 4.3244,-0.19978 c 6.49402,-0.30001 10.41322,1.06053 14.4296,5.00923 5.67934,5.58361 7.27067,12.4821 4.66154,20.20812 -5.53753,16.39755 -29.58798,16.3365 -35.38351,-0.0898 -1.12772,-3.19628 -1.12084,-8.38851 0.0174,-13.15541 0.73156,-3.06376 1.37446,-4.13493 3.92859,-6.54561 l 3.05391,-2.88238 -13.30844,-13.80774 c -19.3081,-20.03249 -26.49172,-27.51096 -30.75335,-32.01554 -2.07918,-2.19769 -4.47245,-4.63556 -5.3184,-5.41748 l -1.53803,-1.42164 -6.70858,7.29407 c -3.68974,4.01174 -8.82433,9.6473 -11.41021,12.52347 -15.74511,17.51265 -26.07165,28.73328 -26.85684,29.18219 -0.72529,0.41466 -0.48287,0.92253 1.23806,2.59389 2.76284,2.68324 5.27269,7.84757 5.74274,11.81641 0.44951,3.79545 -0.64137,8.80508 -2.68721,12.34045 -4.93532,8.5286 -16.14483,11.94882 -25.16041,7.67685 -11.23687,-5.32449 -14.7997,-19.14703 -7.57658,-29.39453 1.20464,-1.70907 1.73406,-2.98901 1.37535,-3.32511 -0.32076,-0.30055 -3.29082,-2.10074 -6.6001,-4.00039 -3.30929,-1.89968 -8.58265,-4.93739 -11.71859,-6.75048 -3.13594,-1.81309 -6.2568,-3.61379 -6.93525,-4.00153 -0.67844,-0.38775 -7.89462,-4.5087 -16.03594,-9.1577 -16.70191,-9.5374 -19.93009,-11.39784 -23.43717,-13.50712 -1.3569,-0.81608 -2.65036,-1.48834 -2.87438,-1.49392 -0.22399,-0.007 -1.59001,1.86328 -3.03557,4.15303 -1.44556,2.28974 -5.45254,8.46514 -8.9044,13.72308 -9.555855,14.55568 -14.498316,23.02725 -14.468964,24.80034 0.0068,0.43754 1.149642,1.59993 2.538655,2.58309 3.305459,2.33965 5.719653,6.238 6.687522,10.79883 1.732332,8.1631 -2.434259,16.30969 -10.427203,20.38739 -3.265498,1.66593 -10.904887,2.2027 -14.967879,1.05166 z m 13.640003,-4.39592 c 3.440001,-1.7432 7.093224,-5.70993 8.117836,-8.8145 0.387409,-1.17388 0.587609,-3.74868 0.444889,-5.7218 -0.356988,-4.93525 -2.816342,-8.82052 -7.284638,-11.50823 -3.129419,-1.88236 -3.790944,-2.03816 -8.664077,-2.0405 -4.762368,-0.002 -5.550034,0.17124 -8.091309,1.78287 -10.701889,6.78694 -10.15954,20.7098 1.031922,26.49057 3.701086,1.91175 10.475279,1.82339 14.445377,-0.18841 z m 236.794308,-2.01524 c 3.18957,-1.50908 7.13212,-5.77822 7.99456,-8.65683 3.10199,-10.35353 -3.71956,-20.49936 -13.78275,-20.49936 -2.8259,0 -3.25268,0.17682 -3.9103,1.62012 -0.65785,1.44384 -0.99929,1.5851 -3.13799,1.29826 -2.9303,-0.39306 -4.52093,0.59419 -6.1721,3.83076 -0.65946,1.29263 -1.62715,2.51454 -2.15044,2.71534 -1.52779,0.58625 -1.30193,8.54182 0.33873,11.93095 1.4379,2.97032 4.47926,6.09408 7.50497,7.70836 2.74748,1.46581 10.26539,1.4954 13.31532,0.0524 z m -119.25138,-3.23736 c 5.29347,-2.35222 8.94314,-8.1341 8.94314,-14.16791 0,-6.21821 -3.18713,-11.18671 -9.14117,-14.25042 -2.30312,-1.1851 -3.31647,-1.32672 -7.4607,-1.04266 -5.50257,0.37715 -7.68924,1.31935 -10.50517,4.52652 -5.72353,6.51875 -5.72353,14.9497 0,21.46846 4.42288,5.03736 11.56201,6.39965 18.1639,3.46601 z M 53.93519,141.16821 c 5.34985,-2.29321 8.474878,-7.61277 8.474878,-14.42629 0,-6.29701 -2.010614,-10.2427 -6.958358,-13.65534 -3.152903,-2.17468 -3.906161,-2.42452 -7.373954,-2.44581 -6.077551,-0.0373 -10.184499,2.58622 -13.878087,8.86536 -4.174767,7.09712 -0.108503,18.40518 7.857059,21.85008 3.037923,1.31383 8.579441,1.22612 11.878462,-0.188 z"
       id="path96" />
    <path
       style="fill:#9f6a3c;stroke-width:0.616768"
       d="m 72.22929,255.76977 c -9.750521,-1.48732 -16.832738,-11.39254 -14.715321,-20.58089 1.461472,-6.34194 4.534266,-9.99166 11.278541,-13.39616 3.470847,-1.75208 4.090928,-1.86483 8.875269,-1.61371 4.092888,0.21483 5.079762,0.10331 4.830645,-0.54587 -0.172189,-0.44871 0.02519,-0.81844 0.438529,-0.82159 0.413385,-0.003 2.085014,-2.44436 3.714731,-5.42488 1.629717,-2.98054 6.134488,-10.26351 10.010596,-16.18442 3.8761,-5.92089 8.44799,-13.12441 10.15972,-16.0078 l 3.11228,-5.24253 -1.98175,-1.54192 c -1.08995,-0.84805 -9.77071,-7.65207 -19.290538,-15.12003 -9.519834,-7.46794 -19.383952,-15.1412 -21.920258,-17.05169 l -4.611475,-3.47363 -1.864594,1.84216 c -3.266211,3.22689 -7.531195,5.02336 -12.041255,5.07195 -10.418002,0.11224 -18.541486,-8.00432 -18.574848,-18.55904 -0.02773,-8.77422 3.40111,-15.02145 10.068067,-18.34373 4.49411,-2.23954 11.232661,-2.26605 15.656297,-0.0617 8.016597,3.99484 11.864056,12.45824 10.146701,22.32004 -0.652367,3.74616 -0.618089,4.24602 0.339137,4.94596 0.585667,0.42824 1.877443,1.50265 2.870609,2.38757 0.993167,0.88492 10.593516,8.69711 21.334099,17.36042 10.740578,8.66332 20.499748,16.65322 21.687028,17.75532 1.18728,1.10212 6.1831,4.2279 11.10182,6.94624 4.91872,2.71833 13.10631,7.28477 18.19464,10.14762 5.08834,2.86287 14.10856,7.93525 20.04496,11.27195 5.93639,3.3367 13.70767,7.71036 17.2695,9.71923 l 6.47605,3.65252 2.2809,-1.28579 c 3.60296,-2.03107 10.58692,-1.66911 16.68472,0.86477 0.80119,0.3329 1.07993,0.15332 1.08167,-0.69684 0.002,-0.98798 10.65526,-13.50198 26.17795,-30.75019 2.4423,-2.71378 7.02178,-7.84836 10.17664,-11.41021 3.15486,-3.56182 6.5411,-7.37808 7.52497,-8.48054 0.98387,-1.10247 2.31388,-2.00451 2.95561,-2.00451 0.72226,0 11.55803,10.55261 28.44374,27.70038 l 27.27701,27.70038 4.38419,-0.31829 c 3.58592,-0.26035 5.05761,-0.0635 8.08291,1.08065 14.14721,5.35069 16.39383,24.61428 3.84253,32.94785 -9.23087,6.12897 -21.62913,2.88193 -26.59561,-6.96523 -2.45181,-4.86124 -2.57068,-7.39978 -0.74725,-15.95735 0.46863,-2.19938 1.39787,-3.56242 4.08156,-5.98698 1.39664,-1.26177 2.45199,-2.5233 2.34524,-2.8034 -0.22121,-0.58034 -3.60448,-4.14153 -30.98239,-32.61162 -19.16473,-19.92924 -19.71853,-20.44315 -20.89592,-19.39105 -0.66518,0.5944 -5.95731,6.3541 -11.76028,12.79932 -5.80299,6.44521 -11.69236,12.96755 -13.08748,14.49403 -1.39515,1.52652 -5.6556,6.24479 -9.46763,10.48506 -3.81205,4.24028 -7.91732,8.60538 -9.12283,9.7002 -1.79558,1.63069 -2.00996,2.06038 -1.18572,2.37667 0.55336,0.21236 1.93164,1.67573 3.06282,3.25194 6.12421,8.53352 5.41065,18.73447 -1.80309,25.77736 -7.33892,7.16507 -18.73999,7.26275 -26.37404,0.22593 -7.47348,-6.88881 -8.29813,-17.81889 -1.97034,-26.11503 0.86962,-1.14015 1.58114,-2.22311 1.58114,-2.40659 0,-0.46908 -15.8456,-9.74682 -39.78153,-23.29249 -4.40988,-2.4956 -12.69938,-7.26036 -18.42113,-10.58834 -5.72173,-3.32797 -10.61805,-5.91806 -10.88069,-5.75574 -0.26265,0.16234 -1.81539,2.44835 -3.45053,5.08005 -1.63513,2.63171 -6.07417,9.5199 -9.864527,15.30709 -3.790358,5.78719 -8.380485,13.36969 -10.200277,16.85001 l -3.308705,6.32787 1.541917,1.00704 c 5.409121,3.53267 8.634751,9.34592 8.634751,15.56158 0,11.10521 -10.956661,19.64777 -22.869479,17.83061 z m 11.102222,-4.54751 c 3.440001,-1.7432 7.093224,-5.70993 8.117836,-8.8145 0.387409,-1.17388 0.587609,-3.74868 0.444889,-5.7218 -0.356988,-4.93525 -2.816342,-8.82052 -7.284638,-11.50823 -3.129419,-1.88236 -3.790944,-2.03816 -8.664077,-2.0405 -4.762368,-0.002 -5.550034,0.17124 -8.091309,1.78287 -10.701889,6.78694 -10.15954,20.7098 1.031922,26.49057 3.701086,1.91175 10.475279,1.82339 14.445377,-0.18841 z m 236.794308,-2.01524 c 3.18957,-1.50908 7.13212,-5.77822 7.99456,-8.65683 3.10199,-10.35353 -3.71956,-20.49936 -13.78275,-20.49936 -2.8259,0 -3.25268,0.17682 -3.9103,1.62012 -0.65785,1.44384 -0.99929,1.5851 -3.13799,1.29826 -2.9303,-0.39306 -4.52093,0.59419 -6.1721,3.83076 -0.65946,1.29263 -1.62715,2.51454 -2.15044,2.71534 -1.52779,0.58625 -1.30193,8.54182 0.33873,11.93095 1.4379,2.97032 4.47926,6.09408 7.50497,7.70836 2.74748,1.46581 10.26539,1.4954 13.31532,0.0524 z m -119.25138,-3.23736 c 5.29347,-2.35222 8.94314,-8.1341 8.94314,-14.16791 0,-6.21821 -3.18713,-11.18671 -9.14117,-14.25042 -2.30312,-1.1851 -3.31647,-1.32672 -7.4607,-1.04266 -5.50257,0.37715 -7.68924,1.31935 -10.50517,4.52652 -5.72353,6.51875 -5.72353,14.9497 0,21.46846 4.42288,5.03736 11.56201,6.39965 18.1639,3.46601 z M 53.93519,141.16821 c 5.34985,-2.29321 8.474878,-7.61277 8.474878,-14.42629 0,-6.29701 -2.010614,-10.2427 -6.958358,-13.65534 -3.152903,-2.17468 -3.906161,-2.42452 -7.373954,-2.44581 -6.077551,-0.0373 -10.184499,2.58622 -13.878087,8.86536 -4.174767,7.09712 -0.108503,18.40518 7.857059,21.85008 3.037923,1.31383 8.579441,1.22612 11.878462,-0.188 z"
       id="path94" />
    <path
       style="fill:#41768b;stroke-width:0.616768"
       d="m 72.22929,255.76977 c -9.750521,-1.48732 -16.832738,-11.39254 -14.715321,-20.58089 1.461472,-6.34194 4.534266,-9.99166 11.278541,-13.39616 3.470847,-1.75208 4.090928,-1.86483 8.875269,-1.61371 4.092888,0.21483 5.079762,0.10331 4.830645,-0.54587 -0.172189,-0.44871 0.02519,-0.81844 0.438529,-0.82159 0.413385,-0.003 2.085014,-2.44436 3.714731,-5.42488 1.629717,-2.98054 6.134488,-10.26351 10.010596,-16.18442 3.8761,-5.92089 8.44799,-13.12441 10.15972,-16.0078 l 3.11228,-5.24253 -1.98175,-1.54192 c -1.08995,-0.84805 -9.77071,-7.65207 -19.290538,-15.12003 -9.519834,-7.46794 -19.383952,-15.1412 -21.920258,-17.05169 l -4.611475,-3.47363 -1.864594,1.84216 c -3.266211,3.22689 -7.531195,5.02336 -12.041255,5.07195 -10.418002,0.11224 -18.541486,-8.00432 -18.574848,-18.55904 -0.02773,-8.77422 3.40111,-15.02145 10.068067,-18.34373 4.49411,-2.23954 11.232661,-2.26605 15.656297,-0.0617 8.016597,3.99484 11.864056,12.45824 10.146701,22.32004 -0.652367,3.74616 -0.618089,4.24602 0.339137,4.94596 0.585667,0.42824 1.877443,1.50265 2.870609,2.38757 0.993167,0.88492 10.593516,8.69711 21.334099,17.36042 10.740578,8.66332 20.499748,16.65322 21.687028,17.75532 1.18728,1.10212 6.1831,4.2279 11.10182,6.94624 4.91872,2.71833 13.10631,7.28477 18.19464,10.14762 5.08834,2.86287 14.10856,7.93525 20.04496,11.27195 5.93639,3.3367 13.70767,7.71036 17.2695,9.71923 l 6.47605,3.65252 2.2809,-1.28579 c 3.60296,-2.03107 10.58692,-1.66911 16.68472,0.86477 0.80119,0.3329 1.07993,0.15332 1.08167,-0.69684 0.002,-0.98798 10.65526,-13.50198 26.17795,-30.75019 2.4423,-2.71378 7.02178,-7.84836 10.17664,-11.41021 3.15486,-3.56182 6.5411,-7.37808 7.52497,-8.48054 0.98387,-1.10247 2.31388,-2.00451 2.95561,-2.00451 0.72226,0 11.55803,10.55261 28.44374,27.70038 l 27.27701,27.70038 4.38419,-0.31829 c 3.58592,-0.26035 5.05761,-0.0635 8.08291,1.08065 14.14721,5.35069 16.39383,24.61428 3.84253,32.94785 -9.23087,6.12897 -21.62913,2.88193 -26.59561,-6.96523 -2.45181,-4.86124 -2.57068,-7.39978 -0.74725,-15.95735 0.46863,-2.19938 1.39787,-3.56242 4.08156,-5.98698 1.39664,-1.26177 2.45199,-2.5233 2.34524,-2.8034 -0.22121,-0.58034 -3.60448,-4.14153 -30.98239,-32.61162 -19.16473,-19.92924 -19.71853,-20.44315 -20.89592,-19.39105 -0.66518,0.5944 -5.95731,6.3541 -11.76028,12.79932 -5.80299,6.44521 -11.69236,12.96755 -13.08748,14.49403 -1.39515,1.52652 -5.6556,6.24479 -9.46763,10.48506 -3.81205,4.24028 -7.91732,8.60538 -9.12283,9.7002 -1.79558,1.63069 -2.00996,2.06038 -1.18572,2.37667 0.55336,0.21236 1.93164,1.67573 3.06282,3.25194 6.12421,8.53352 5.41065,18.73447 -1.80309,25.77736 -7.33892,7.16507 -18.73999,7.26275 -26.37404,0.22593 -7.47348,-6.88881 -8.29813,-17.81889 -1.97034,-26.11503 0.86962,-1.14015 1.58114,-2.22311 1.58114,-2.40659 0,-0.46908 -15.8456,-9.74682 -39.78153,-23.29249 -4.40988,-2.4956 -12.69938,-7.26036 -18.42113,-10.58834 -5.72173,-3.32797 -10.61805,-5.91806 -10.88069,-5.75574 -0.26265,0.16234 -1.81539,2.44835 -3.45053,5.08005 -1.63513,2.63171 -6.07417,9.5199 -9.864527,15.30709 -3.790358,5.78719 -8.380485,13.36969 -10.200277,16.85001 l -3.308705,6.32787 1.541917,1.00704 c 5.409121,3.53267 8.634751,9.34592 8.634751,15.56158 0,11.10521 -10.956661,19.64777 -22.869479,17.83061 z m 10.842505,-3.86464 c 4.196171,-1.9582 7.416222,-5.6762 8.679495,-10.02169 1.807112,-6.21623 -0.189998,-12.34076 -5.213424,-15.98797 -3.84014,-2.78809 -7.16859,-3.64251 -12.186817,-3.12837 -4.837733,0.49563 -7.963455,1.96233 -10.612969,4.97994 -3.805591,4.33435 -4.992318,9.11116 -3.52094,14.17252 2.009824,6.91356 8.233511,11.42469 15.761821,11.42469 2.907602,0 4.856213,-0.39538 7.092834,-1.43912 z m 237.499315,-2.48429 c 9.64661,-4.4919 11.84722,-17.7333 4.20007,-25.27242 -3.13523,-3.09095 -6.97525,-4.71436 -11.15131,-4.71436 -2.28508,0 -2.786,0.23526 -3.40811,1.60064 -0.65532,1.43831 -0.9715,1.5619 -3.1175,1.21875 -2.1529,-0.34426 -2.58111,-0.17425 -4.34583,1.72549 -5.0863,5.47549 -6.20733,9.04621 -4.74882,15.12595 0.92077,3.83822 5.22043,8.93364 8.93396,10.58741 3.73189,1.66195 9.74239,1.5423 13.63754,-0.27146 z m -119.69667,-3.45118 c 5.29347,-2.35222 8.94314,-8.1341 8.94314,-14.16791 0,-6.21821 -3.18713,-11.18671 -9.14117,-14.25042 -2.30312,-1.1851 -3.31647,-1.32672 -7.4607,-1.04266 -5.50257,0.37715 -7.68924,1.31935 -10.50517,4.52652 -5.72353,6.51875 -5.72353,14.9497 0,21.46846 4.42288,5.03736 11.56201,6.39965 18.1639,3.46601 z M 53.93519,141.16821 c 5.34985,-2.29321 8.474878,-7.61277 8.474878,-14.42629 0,-6.29701 -2.010614,-10.2427 -6.958358,-13.65534 -3.152903,-2.17468 -3.906161,-2.42452 -7.373954,-2.44581 -6.077551,-0.0373 -10.184499,2.58622 -13.878087,8.86536 -4.174767,7.09712 -0.108503,18.40518 7.857059,21.85008 3.037923,1.31383 8.579441,1.22612 11.878462,-0.188 z"
       id="path92" />
    <path
       style="fill:#5f5f5f;stroke-width:0.616768"
       d="m 72.22929,255.76977 c -9.750521,-1.48732 -16.832738,-11.39254 -14.715321,-20.58089 1.461472,-6.34194 4.534266,-9.99166 11.278541,-13.39616 3.470847,-1.75208 4.090928,-1.86483 8.875269,-1.61371 4.092888,0.21483 5.079762,0.10331 4.830645,-0.54587 -0.172189,-0.44871 0.02519,-0.81844 0.438529,-0.82159 0.413385,-0.003 2.085014,-2.44436 3.714731,-5.42488 1.629717,-2.98054 6.134488,-10.26351 10.010596,-16.18442 3.8761,-5.92089 8.44799,-13.12441 10.15972,-16.0078 l 3.11228,-5.24253 -1.98175,-1.54192 c -1.08995,-0.84805 -9.77071,-7.65207 -19.290538,-15.12003 -9.519834,-7.46794 -19.383952,-15.1412 -21.920258,-17.05169 l -4.611475,-3.47363 -1.864594,1.84216 c -3.266211,3.22689 -7.531195,5.02336 -12.041255,5.07195 -10.418002,0.11224 -18.541486,-8.00432 -18.574848,-18.55904 -0.02773,-8.77422 3.40111,-15.02145 10.068067,-18.34373 4.49411,-2.23954 11.232661,-2.26605 15.656297,-0.0617 8.016597,3.99484 11.864056,12.45824 10.146701,22.32004 -0.652367,3.74616 -0.618089,4.24602 0.339137,4.94596 0.585667,0.42824 1.877443,1.50265 2.870609,2.38757 0.993167,0.88492 10.593516,8.69711 21.334099,17.36042 10.740578,8.66332 20.499748,16.65322 21.687028,17.75532 1.18728,1.10212 6.1831,4.2279 11.10182,6.94624 4.91872,2.71833 13.10631,7.28477 18.19464,10.14762 5.08834,2.86287 14.10856,7.93525 20.04496,11.27195 5.93639,3.3367 13.70767,7.71036 17.2695,9.71923 l 6.47605,3.65252 2.2809,-1.28579 c 3.60296,-2.03107 10.58692,-1.66911 16.68472,0.86477 0.80119,0.3329 1.07993,0.15332 1.08167,-0.69684 0.002,-0.98798 10.65526,-13.50198 26.17795,-30.75019 2.4423,-2.71378 7.02178,-7.84836 10.17664,-11.41021 3.15486,-3.56182 6.5411,-7.37808 7.52497,-8.48054 0.98387,-1.10247 2.31388,-2.00451 2.95561,-2.00451 0.72226,0 11.55803,10.55261 28.44374,27.70038 l 27.27701,27.70038 4.38419,-0.31829 c 3.58592,-0.26035 5.05761,-0.0635 8.08291,1.08065 14.14721,5.35069 16.39383,24.61428 3.84253,32.94785 -9.23087,6.12897 -21.62913,2.88193 -26.59561,-6.96523 -2.45181,-4.86124 -2.57068,-7.39978 -0.74725,-15.95735 0.46863,-2.19938 1.39787,-3.56242 4.08156,-5.98698 1.39664,-1.26177 2.45199,-2.5233 2.34524,-2.8034 -0.22121,-0.58034 -3.60448,-4.14153 -30.98239,-32.61162 -19.16473,-19.92924 -19.71853,-20.44315 -20.89592,-19.39105 -0.66518,0.5944 -5.95731,6.3541 -11.76028,12.79932 -5.80299,6.44521 -11.69236,12.96755 -13.08748,14.49403 -1.39515,1.52652 -5.6556,6.24479 -9.46763,10.48506 -3.81205,4.24028 -7.91732,8.60538 -9.12283,9.7002 -1.79558,1.63069 -2.00996,2.06038 -1.18572,2.37667 0.55336,0.21236 1.93164,1.67573 3.06282,3.25194 6.12421,8.53352 5.41065,18.73447 -1.80309,25.77736 -7.33892,7.16507 -18.73999,7.26275 -26.37404,0.22593 -7.47348,-6.88881 -8.29813,-17.81889 -1.97034,-26.11503 0.86962,-1.14015 1.58114,-2.22311 1.58114,-2.40659 0,-0.46908 -15.8456,-9.74682 -39.78153,-23.29249 -4.40988,-2.4956 -12.69938,-7.26036 -18.42113,-10.58834 -5.72173,-3.32797 -10.61805,-5.91806 -10.88069,-5.75574 -0.26265,0.16234 -1.81539,2.44835 -3.45053,5.08005 -1.63513,2.63171 -6.07417,9.5199 -9.864527,15.30709 -3.790358,5.78719 -8.380485,13.36969 -10.200277,16.85001 l -3.308705,6.32787 1.541917,1.00704 c 5.409121,3.53267 8.634751,9.34592 8.634751,15.56158 0,11.10521 -10.956661,19.64777 -22.869479,17.83061 z m 10.842505,-3.86464 c 4.196171,-1.9582 7.416222,-5.6762 8.679495,-10.02169 1.807112,-6.21623 -0.189998,-12.34076 -5.213424,-15.98797 -3.84014,-2.78809 -7.16859,-3.64251 -12.186817,-3.12837 -4.837733,0.49563 -7.963455,1.96233 -10.612969,4.97994 -3.805591,4.33435 -4.992318,9.11116 -3.52094,14.17252 2.009824,6.91356 8.233511,11.42469 15.761821,11.42469 2.907602,0 4.856213,-0.39538 7.092834,-1.43912 z m 237.499315,-2.48429 c 9.64661,-4.4919 11.84722,-17.7333 4.20007,-25.27242 -3.13523,-3.09095 -6.97525,-4.71436 -11.15131,-4.71436 -2.28508,0 -2.786,0.23526 -3.40811,1.60064 -0.65532,1.43831 -0.9715,1.5619 -3.1175,1.21875 -2.1529,-0.34426 -2.58111,-0.17425 -4.34583,1.72549 -5.0863,5.47549 -6.20733,9.04621 -4.74882,15.12595 0.92077,3.83822 5.22043,8.93364 8.93396,10.58741 3.73189,1.66195 9.74239,1.5423 13.63754,-0.27146 z m -119.69667,-3.06662 c 10.17408,-4.74786 12.66644,-17.45297 5.01929,-25.58649 -3.50476,-3.72766 -6.16988,-4.73504 -12.31446,-4.65472 -4.95708,0.0649 -5.67363,0.23198 -7.99855,1.866 -8.90335,6.25749 -10.1792,18.3817 -2.67608,25.43052 4.68562,4.4019 12.20628,5.63431 17.9698,2.94469 z M 54.741819,141.15072 c 7.06718,-4.05358 10.002319,-12.20098 7.285708,-20.22377 -2.16854,-6.40421 -7.859171,-10.6608 -14.252409,-10.6608 -5.617379,0 -9.204043,2.15803 -13.326002,8.01799 -1.821064,2.5889 -1.952283,3.12781 -1.952283,8.01797 0,4.56993 0.210537,5.59861 1.64108,8.01799 3.407514,5.76286 7.909876,8.57458 13.778109,8.60438 2.978865,0.0151 4.310125,-0.33082 6.825797,-1.77376 z"
       id="path90" />
    <path
       style="fill:#0b0b0b;stroke-width:0.616768"
       d="m 72.586738,255.53717 c -0.339223,-0.14526 -1.756325,-0.55654 -3.14912,-0.91395 -6.269795,-1.60888 -11.9583,-9.07579 -11.964745,-15.70529 -0.0068,-7.16112 4.016062,-13.13855 11.317381,-16.81543 4.012924,-2.02087 4.692277,-2.17377 8.398662,-1.89026 2.217912,0.16967 4.413901,0.41091 4.879976,0.53611 0.544113,0.14616 2.310122,-2.42138 4.934168,-7.17358 2.24772,-4.07066 5.998018,-10.31545 8.333996,-13.87729 12.485724,-19.03793 14.564134,-22.38184 14.564134,-23.43202 0,-0.51166 -1.87343,-2.31377 -4.16319,-4.00467 -2.28975,-1.6909 -7.808531,-5.99286 -12.263961,-9.5599 C 80.768102,152.52844 72.453704,146.03171 67.196157,142.16773 l -4.847455,-3.56256 -2.590574,2.09804 c -3.769268,3.05261 -6.354762,4.19672 -10.290334,4.55358 -5.550457,0.50329 -9.976943,-1.08675 -13.873905,-4.98372 -3.909528,-3.90954 -5.548838,-8.08503 -5.485037,-13.97096 0.07115,-6.56707 1.602893,-10.54327 5.393744,-14.00165 5.87316,-5.35809 12.565601,-6.52323 19.197872,-3.34234 4.516491,2.16614 7.160161,4.85683 9.163091,9.32602 2.170015,4.842 2.481369,7.74085 1.353684,12.60333 l -0.967522,4.17186 1.701437,1.32128 c 0.935788,0.72668 2.811619,2.31179 4.168509,3.52246 2.519489,2.24798 10.821777,8.99732 28.371311,23.06442 5.427562,4.35054 10.978482,8.95057 12.335372,10.22225 1.35689,1.2717 6.21394,4.38389 10.79343,6.91599 8.00483,4.42606 25.39928,14.17906 30.53,17.11806 2.28879,1.31107 11.07084,6.23507 24.7902,13.89962 3.11871,1.74231 6.07918,3.50711 6.57882,3.92178 0.73345,0.60871 1.51472,0.43691 4.05599,-0.8919 4.40915,-2.30547 9.282,-1.98937 15.21245,0.9868 8.79864,4.41555 12.42491,13.67138 9.18173,23.43574 -1.27274,3.83184 -5.85457,8.83792 -9.86098,10.77405 -3.70809,1.79196 -11.97383,1.69673 -15.80609,-0.18208 -6.06838,-2.97509 -10.40263,-9.40419 -10.89771,-16.16484 -0.30456,-4.15933 1.40078,-9.42823 4.19235,-12.95287 1.06483,-1.34446 1.76774,-2.71676 1.56205,-3.04957 -0.33674,-0.54485 -4.81383,-3.18601 -18.83214,-11.10954 -2.54416,-1.43804 -6.4298,-3.66868 -8.63474,-4.95696 -2.20495,-1.28829 -9.00482,-5.19556 -15.11081,-8.68281 -6.106,-3.48726 -13.87727,-7.9444 -17.26949,-9.90476 -3.39223,-1.96035 -6.92203,-3.99545 -7.84402,-4.52243 l -1.67633,-0.95816 -2.94943,4.65395 c -1.62218,2.55969 -6.22453,9.66405 -10.227411,15.78749 -7.187388,10.99493 -12.801389,20.53657 -13.634866,23.17403 -0.341496,1.08064 -0.07793,1.53917 1.299085,2.26026 2.404729,1.25923 5.339741,4.50897 7.039413,7.79429 2.000616,3.86701 1.998267,10.22666 -0.0059,14.33181 -2.997565,6.14179 -9.341844,10.30563 -16.322617,10.71275 -2.082281,0.12147 -4.063722,0.102 -4.402944,-0.0432 z m 10.279726,-3.35311 c 7.582093,-3.32582 11.626862,-12.27824 8.842,-19.5703 -2.525426,-6.61273 -8.453277,-10.32271 -16.012957,-10.02179 -5.060562,0.20145 -8.029359,1.29925 -11.076059,4.09573 -3.37728,3.09991 -4.887244,6.55021 -4.9231,11.24939 -0.048,6.29287 3.384727,11.60474 9.189787,14.22044 3.450935,1.55494 10.465569,1.56827 13.980329,0.0265 z m 118.750626,-5.95862 c 6.07308,-2.96477 9.07875,-8.24724 8.7212,-15.32761 -0.18856,-3.73409 -0.53886,-4.90799 -2.26911,-7.60436 -3.7233,-5.80225 -9.1549,-8.18813 -16.63851,-7.30857 -6.41388,0.75382 -10.81874,4.60635 -12.80222,11.19692 -2.16981,7.20973 0.2518,13.41152 7.32379,18.75643 1.8446,1.39412 6.72778,2.4833 9.6797,2.15902 1.52648,-0.1677 4.21981,-1.01002 5.98515,-1.87183 z M 53.640942,141.99843 c 6.620415,-2.76129 10.99037,-11.39727 9.333227,-18.44453 -0.977021,-4.15489 -2.493242,-7.01644 -4.981616,-9.4017 -2.859458,-2.74096 -5.976011,-3.88605 -10.576476,-3.88605 -5.239486,0 -8.510843,1.74278 -12.086755,6.43906 -2.518964,3.30819 -2.739594,3.90016 -3.007087,8.06832 -0.484334,7.5469 2.182607,12.87749 8.192574,16.37507 2.510484,1.461 3.804227,1.79575 6.958452,1.80046 2.131037,0.003 4.906484,-0.42459 6.167681,-0.95063 z M 307.81105,252.54225 c -4.98406,-1.86474 -8.15034,-4.67184 -10.5697,-9.37075 -1.54962,-3.00966 -1.91949,-7.38835 -1.05883,-12.53506 0.74962,-4.48268 0.96109,-4.89885 4.10215,-8.07329 1.82147,-1.84084 3.23562,-3.54437 3.14253,-3.78563 -0.0931,-0.24126 -6.27529,-6.74016 -13.7382,-14.442 -14.58887,-15.05598 -16.42794,-16.97355 -29.1559,-30.4002 -8.14027,-8.58712 -8.37274,-8.77451 -9.56502,-7.7096 -0.67209,0.6003 -5.8168,6.22604 -11.43268,12.50166 -5.61588,6.27561 -11.75495,13.0759 -13.64237,15.11174 -1.88745,2.03585 -5.78578,6.33781 -8.66297,9.55991 -7.96031,8.91457 -10.98536,11.86938 -11.69957,11.42799 -0.41771,-0.25818 -0.44643,-0.77471 -0.0802,-1.44389 0.60884,-1.1126 4.90624,-6.24947 8.59743,-10.27688 1.23527,-1.34781 4.30526,-4.81712 6.82216,-7.7096 2.51691,-2.89248 7.79027,-8.8483 11.71859,-13.23513 12.05518,-13.46226 13.85363,-15.49965 16.01832,-18.1464 1.1503,-1.40648 2.44123,-2.55724 2.8687,-2.55724 0.42746,0 13.18802,12.55894 28.35678,27.90874 l 27.57955,27.90876 4.54922,-0.21763 c 7.98994,-0.38219 14.00462,2.94455 17.83872,9.8667 1.60461,2.89701 1.82821,3.9096 1.81884,8.23719 -0.0118,5.44208 -1.06281,8.19531 -4.71753,12.35781 -4.17578,4.75596 -13.35087,7.17004 -19.08996,5.0228 z m 12.82246,-3.10268 c 5.75325,-2.93516 8.80994,-7.88904 8.80994,-14.27793 0,-8.84786 -6.75072,-15.70642 -15.47436,-15.72154 -2.95562,-0.006 -3.52253,0.17771 -3.79626,1.22438 -0.41013,1.5684 -2.13993,2.24333 -3.5279,1.37653 -1.45843,-0.9108 -3.04225,0.26219 -6.28978,4.6582 -2.0674,2.79854 -2.62083,4.11428 -2.83947,6.75062 -0.53156,6.41008 2.37271,12.2543 7.6171,15.32771 5.33248,3.12503 10.26042,3.3355 15.50073,0.66203 z"
       id="path88" />
  </g>
</svg>
